<?xml version="1.0" encoding="UTF-8"?>
<svg width="24px" height="24px" viewBox="0 0 24 24" version="1.1" xmlns="http://www.w3.org/2000/svg">
    <path d="M20,6 C21.1045695,6 22,6.8954305 22,8 L22,18 C22,19.1045695 21.1045695,20 20,20 L4,20 C2.8954305,20 2,19.1045695 2,18 L2,8 C2,6.8954305 2.8954305,6 4,6 L20,6 Z M20,8 L4,8 L4,18 L20,18 L20,8 Z M7,11 C8.1045695,11 9,11.8954305 9,13 C9,14.1045695 8.1045695,15 7,15 C5.8954305,15 5,14.1045695 5,13 C5,11.8954305 5.8954305,11 7,11 Z M19,11 L19,15 L11,15 L11,11 L19,11 Z" fill="#4F46E5"/>
</svg>